<mxfile host="app.diagrams.net" modified="2024-05-21T20:20:28.129Z" agent="Mozilla/5.0 (Windows NT 10.0; Win64; x64) AppleWebKit/537.36 (KHTML, like Gecko) Chrome/123.0.0.0 Safari/537.36 OPR/109.0.0.0 (Edition Yx GX)" version="24.4.4" etag="zaZnu_ACxW1NhKeKawSW" type="github">
  <diagram name="Страница — 1" id="km9Sf00-avPOIo36jQgh">
    <mxGraphModel>
      <root>
        <mxCell id="0" />
        <mxCell id="1" parent="0" />
      </root>
    </mxGraphModel>
  </diagram>
</mxfile>
